<svg width="30" height="30" viewBox="0 0 30 30" fill="none" xmlns="http://www.w3.org/2000/svg">
<path d="M26.512 19.8625C25.7168 21.7431 24.473 23.4002 22.8894 24.6891C21.3057 25.978 19.4305 26.8593 17.4276 27.256C15.4247 27.6526 13.3551 27.5527 11.3997 26.9647C9.44436 26.3768 7.66281 25.3188 6.2108 23.8833C4.75879 22.4478 3.68055 20.6784 3.07032 18.7299C2.4601 16.7814 2.33648 14.7131 2.71027 12.7058C3.08407 10.6985 3.9439 8.81326 5.21458 7.21501C6.48527 5.61676 8.12813 4.35412 9.99953 3.53748" stroke="white" stroke-width="3" stroke-linecap="round" stroke-linejoin="round"/>
<path d="M27.5 15C27.5 13.3585 27.1767 11.733 26.5485 10.2165C25.9203 8.69989 24.9996 7.3219 23.8388 6.16117C22.6781 5.00043 21.3001 4.07969 19.7835 3.45151C18.267 2.82332 16.6415 2.5 15 2.5V15H27.5Z" stroke="white" stroke-width="3" stroke-linecap="round" stroke-linejoin="round"/>
</svg>
