<svg width="60" height="60" viewBox="0 0 60 60" fill="none" xmlns="http://www.w3.org/2000/svg">
<rect width="60" height="60" rx="30" fill="#828282"/>
<path d="M40 41.25V38.75C40 37.4239 39.4732 36.1522 38.5355 35.2145C37.5979 34.2768 36.3261 33.75 35 33.75H25C23.6739 33.75 22.4021 34.2768 21.4645 35.2145C20.5268 36.1522 20 37.4239 20 38.75V41.25M35 23.75C35 26.5114 32.7614 28.75 30 28.75C27.2386 28.75 25 26.5114 25 23.75C25 20.9886 27.2386 18.75 30 18.75C32.7614 18.75 35 20.9886 35 23.75Z" stroke="white" stroke-width="3" stroke-linecap="round" stroke-linejoin="round"/>
</svg>
