<svg width="144" height="25" viewBox="0 0 144 25" fill="none" xmlns="http://www.w3.org/2000/svg">
    <!-- 노란색 별 한 개 반 -->
    <path d="M28 17.4449L33.253 20.5859L31.859 14.6659L36.5 10.6828L30.3885 10.1607L28 4.58594L25.6115 10.1607L19.5 10.6828L24.1325 14.6659L22.747 20.5859L28 17.4449Z" fill="#FCD34D"/>
    <path d="M50 17.4449L55.253 20.5859L53.859 14.6659L58.5 10.6828L52.3885 10.1607L50 4.58594L47.6115 10.1607L41.5 10.6828L46.1325 14.6659L44.747 20.5859L50 17.4449Z" fill="#FCD34D"/>
    <path d="M72 17.4449L77.253 20.5859L75.859 14.6659L80.5 10.6828L74.3885 10.1607L72 4.58594L69.6115 10.1607L63.5 10.6828L68.1325 14.6659L66.747 20.5859L72 17.4449Z" fill="#828282"/>
    <path d="M94 17.4449L99.253 20.5859L97.859 14.6659L102.5 10.6828L96.3885 10.1607L94 4.58594L91.6115 10.1607L85.5 10.6828L90.1325 14.6659L88.747 20.5859L94 17.4449Z" fill="#828282"/>
    <path d="M116 17.4449L121.253 20.5859L119.859 14.6659L124.5 10.6828L118.389 10.1607L116 4.58594L113.611 10.1607L107.5 10.6828L112.132 14.6659L110.747 20.5859L116 17.4449Z" fill="#828282"/>
</svg>
